<svg version="1.2" xmlns="http://www.w3.org/2000/svg" viewBox="0 0 1000 1000" width="1000" height="1000">
	<title>New Project</title>
	<style>
		.s0 { fill: #ff0031 } 
		.s1 { fill: #161515 } 
		.s2 { fill: #ffb18f } 
		.s3 { fill: #db826a } 
		.s4 { fill: #90ced6 } 
		.s5 { fill: #353535 } 
		.s6 { fill: #7c4639 } 
		.s7 { fill: #444444 } 
		.s8 { fill: #474747 } 
		.s9 { fill: #232323 } 
		.s10 { fill: #2b2b2b } 
		.s11 { fill: #aaaaaa } 
		.s12 { fill: #8c8c8c } 
		.s13 { fill: #cecece } 
	</style>
	<path fill-rule="evenodd" class="s0" d="m499.5 964.1c-259.6 0-469.5-209.9-469.5-469.6 0-259.6 209.9-469.5 469.5-469.5 259.7 0 469.6 209.9 469.6 469.5 0 259.7-209.9 469.6-469.6 469.6z"/>
	<path class="s1" d="m176.3 614.4c11.2-79.9 209.4-185.1 344.8-170 135.3 15.2 261.8 104.2 294.2 170 32.4 65.8-15.2 302.6-15.2 302.6h-570.8c0 0-72.3-164.1-53-302.6z"/>
	<path class="s1" d="m289 441.3c0 0-16.2-29.3 21.3-74.9 37.4-45.5 217.6-86 310.7-17.2 93.1 68.9 104.8 70.4 99.2 92.1-5.6 21.8-145.8 115.4-155.9 156.4-10.1 41-57.7 110.8-60.8 110.8-3.2 0.1-42.4-80.9-73.8-123.4-31.4-42.5-140.7-143.8-140.7-143.8z"/>
	<path class="s2" d="m356.8 332c-2 27.4 25.4 121.5 54.7 162 29.4 40.4 72.8 65.8 98.5 67.8 25.7 2 66.1-28 93.5-81.7 27.3-53.6 48.9-153.1 48.9-153.1z"/>
	<path class="s3" d="m650.2 336.5c-2.5-3.4-5.4-6.5-8.7-9.3l-284.7 4.8c-1.5 21 14.3 81.5 35 126.7 32.4-10.8 65.3-22.3 84.5-30.9 18.2-8.2 7.3-25.9 23.9-29 16.6-3 13.5 27.4 27.7 31.4 10.1 2.9 54.8 19.6 84.3 30.8 18.2-43.5 32.7-101.9 38-124.5z"/>
	<path class="s4" d="m292.2 430.7c0 0 50.5-57.7 196.7-56.7 146.3 1 217.9 59.6 217.9 59.6 0 0-128.8-48.9-227.5-45.4-84.1 3-187.1 42.5-187.1 42.5z"/>
	<path class="s5" d="m271.8 440.3c-3.5-0.9 62.8-221.6 150.2-282.7 50.1-35 143.3-34 188.9 4.4 59.6 50.4 125.5 276.3 122.4 283.4-3 7.1-78.3-58.8-233.1-62.8-157.9-4-217.2 60.8-228.4 57.7z"/>
	<path class="s5" d="m271.8 440.3c0 0 7.5-15.1 15.8-11.6 58.5 24.3 186.2 142.6 205.7 206.8 25.3 83 14.3 131.7 14.3 131.7 0 0-39.4-107.2-98.1-182.1-46.9-59.8-137.7-144.8-137.7-144.8z"/>
	<path class="s5" d="m733.3 445.4c0 0-10.6-20.8-17.2-17.2-54.5 29.5-183.6 143.8-203.1 207.8-25.3 83-5.4 131.2-5.4 131.2 0 0 29.6-103.4 88.3-178.3 46.8-59.7 137.4-143.5 137.4-143.5z"/>
	<path class="s3" d="m479.3 450.6c0 0 13-8 19.7-9.6 4.7-1.1 24.4 11.6 21.8 13.1-2.5 1.6-43.5 0.1-41.5-3.5z"/>
	<path class="s6" d="m463.9 497.8c-1.1-2.7 18.5-8.5 40.3-9.2 21.8-0.7 35.9 1.6 32.3 3.6-2.2 1.2-19.3 0.2-31.9 1.1-12.6 1-37.6 12.4-40.7 4.5z"/>
	<path class="s3" d="m461.1 487.1c4.6 2.7-8.6 10.2-3 16.7 6.8 8.1 14.1 3.6 14.1 5.6 0 2-10.3 6.7-19.2-5.6-5.3-7.3 2-20.2 8.1-16.7z"/>
	<path class="s7" d="m512.7 153.2c-54.7 0-102.1 178.4-113.5 237.2 28-5.5 61.4-8.8 101-7.8 41.6 1.1 77.5 6.7 107.8 14.1-9.5-62.6-21.9-243.5-95.3-243.5z"/>
	<path class="s4" d="m503.4 756.3c-5.3-46.7-23.7-116.9-81.8-180.3-35.2-38.5-66.2-63-91.6-78.7 27.1 27.4 57.9 60.3 79.5 87.8 47.4 60.5 82.3 142.1 93.9 171.2z"/>
	<path class="s5" d="m213.5 554.2c-68.5 54.1-149.1 260.6-161.3 327.4-12.1 66.8 215.8 90.7 257.3 68.5 41.5-22.3-23.5-301.3-47.8-333.7-24.3-32.4-34-73.4-48.2-62.2z"/>
	<path class="s8" d="m595.9 588.9c19.8-25.2 47.3-54.7 72.6-80.4-21.8 15.5-46.9 37.1-74.7 67.4-56.1 61.4-75.2 129-81.2 175.7 10.6-31.7 38.4-105.5 83.3-162.7z"/>
	<path class="s9" d="m233.4 674.1c0 0-25.3 71.9-41.5 87.1-16.2 15.1-45.6 4-63.8 17.2-18.2 13.1-21.2 52.6-21.2 52.6 0 0 40.6-30.4 80.5-15.2 39.9 15.2 69.3-14.2 69.3-14.2z"/>
	<path class="s10" d="m237.4 833.8c0 0-57.8-15-81.4 6.3-17 15.2-16.5 33.4-16.5 33.4 0 0 14-16.3 31.6-22.4 26.2-9 85 27.2 61.3-2.9z"/>
	<path class="s5" d="m767.7 554.2c68.6 54.1 149.2 260.6 161.4 327.4 12.1 66.8-215.8 90.7-257.3 68.5-41.5-22.3 23.5-301.3 47.8-333.7 24.3-32.4 34-73.4 48.1-62.2z"/>
	<path class="s9" d="m747.9 674.1c0 0 25.3 71.9 41.5 87.1 16.2 15.1 45.5 4 63.8 17.2 18.2 13.1 21.2 52.6 21.2 52.6 0 0-40.6-30.4-80.5-15.2-39.9 15.2-69.3-14.2-69.3-14.2z"/>
	<path class="s10" d="m743.9 833.8c0 0 57.8-15 81.4 6.3 17 15.2 16.5 33.4 16.5 33.4 0 0-14-16.3-31.6-22.4-26.2-9-85 27.2-61.3-2.9z"/>
	<path class="s10" d="m846.2 756.3c0 0-9.5-26-27.7-33.1-18.2-7.1-44.3-25.8-44.3-25.8 0 0 9.7 47.1 19.7 50.6 23.8 8.3 52.3 8.3 52.3 8.3z"/>
	<path fill-rule="evenodd" class="s11" d="m798.1 627.6v330.9h-570.8v-330.9z"/>
	<path fill-rule="evenodd" class="s12" d="m798.1 958.2v16.3h-570.8v-16.3z"/>
	<path fill-rule="evenodd" class="s13" d="m390.4 953.7v5.7h-60.7v-5.7z"/>
	<path fill-rule="evenodd" class="s13" d="m695.7 953.7v5.7h-60.7v-5.7z"/>
	<path fill-rule="evenodd" class="s13" d="m798.1 628.3v7.7h-570.8v-7.7z"/>
	<path class="s10" d="m135 756.3c0 0 9.6-26 27.8-33.1 18.2-7.1 44.3-25.8 44.3-25.8 0 0-9.7 47.1-19.7 50.6-23.9 8.3-52.4 8.3-52.4 8.3z"/>
	<path fill-rule="evenodd" class="s8" d="m501.7 748.5h-24.7v23.6h7.3v-17h17.4z"/>
	<path fill-rule="evenodd" class="s8" d="m523.8 748.5h24.6v23.6h-7.3v-17h-17.3z"/>
	<path fill-rule="evenodd" class="s8" d="m523.8 815.5h24.6v-23.5h-7.3v17h-17.3z"/>
	<path fill-rule="evenodd" class="s8" d="m501.7 815.5h-24.7v-23.5h7.3v17h17.4z"/>
</svg>