<svg version="1.2" xmlns="http://www.w3.org/2000/svg" viewBox="0 0 1122 1122" width="1122" height="1122">
	<title>icon-analyzing</title>
	<style>
		.s0 { fill: none } 
		.s1 { fill: #ff0031 } 
		.s2 { fill: #aad4c8 } 
		.s3 { fill: #5f5f5f } 
		.s4 { fill: #363636 } 
	</style>
	<g id="Bg">
	</g>
	<g id="Object">
		<g>
			<path class="s0" d="m356.7 500.8c-0.6 83.8 66.8 152.3 150.6 152.9 83.8 0.6 152.2-66.8 152.8-150.6 0.7-83.8-66.7-152.2-150.5-152.9-83.8-0.6-152.3 66.8-152.9 150.6zm151.2 131c-71.6-0.5-129.2-59-128.6-130.5 0.5-71.6 53.8-129.3 125.4-128.7 0.9 0 1.7 0 2.6 0.1l-1 129.5 116.2 62.6c-17.5 38.1-64.4 67.4-114.6 67zm40.7-126.2l-10.8-5.8 8.8-27.4 18.8-19zm22.4-58l18.8-19-27.2 84.6-10.8-5.9zm-36.4 50.3l-8.7-4.7 15.1-15.3zm105.2-2.1c-0.1 18.9-3.5 37.4-11.8 53.1l-6.3-3.5 18-55.7q0.1 3 0.1 6.1zm-1-15.1l-20.3 63-10.8-5.9 25.7-79.8c2.5 7.3 4.4 14.9 5.4 22.7zm-7.4-28.1l-26.9 83.4-10.8-5.8 30.1-93.3c2.9 5 5.4 10.3 7.6 15.7zm-10.1-19.8l-30.8 95.6-10.7-5.9 32.8-101.9c3.1 3.8 6 7.9 8.7 12.2zm-15.8-20.1q2.2 2.3 4.4 4.7l-33.3 103.4-10.8-5.9 29.6-92zm-81.8-39.4c27.5 0.8 53.3 11.8 70.6 28.1l-72 73z"/>
			<path class="s1" d="m813.9 762.2l-2.2-2.3-55.8 54.9 1.3 1.3 14.6 14.8c9.3 9.5 29.4 4.9 44.8-10.3 15.4-15.2 20.3-35.1 11-44.6z"/>
			<path fill-rule="evenodd" class="s2" d="m798.2 746.4l-55.8 54.9 13.5 13.5 55.8-54.9-1.6-1.6h-0.1z"/>
			<path class="s1" d="m507.1 286.1c-119.2-0.8-216.5 95.1-217.4 214.2-0.9 119.2 95 216.5 214.2 217.4 44.1 0.3 85.3-12.7 119.6-35.2l118.9 118.8 55.8-54.9-118.1-118c25.5-35.1 40.8-78.2 41.2-124.9 0.9-119.1-95-216.5-214.2-217.4zm0.2 367.6c-83.8-0.6-151.2-69.1-150.6-152.9 0.6-83.8 69.1-151.2 152.9-150.6 83.8 0.7 151.2 69.1 150.5 152.9-0.6 83.8-69 151.2-152.8 150.6z"/>
			<path class="s3" d="m594.3 401.4c-17.3-16.2-43.2-27.3-70.6-28l-1.4 101.1z"/>
			<path class="s4" d="m504.7 372.6c-71.6-0.6-124.9 57.1-125.4 128.7-0.6 71.5 57 130 128.6 130.5 50.2 0.4 97.1-28.9 114.6-67l-116.2-62.6 1-129.5c-0.9-0.1-1.7-0.1-2.6-0.1z"/>
			<path fill-rule="evenodd" class="s2" d="m562.8 513.6l27.2-84.6-18.8 19-19.2 59.7z"/>
			<path fill-rule="evenodd" class="s2" d="m548.6 505.6l16.8-52.2-18.8 19-8.8 27.4z"/>
			<path class="s2" d="m604.5 536.1l26.9-83.4c-2.2-5.5-4.8-10.7-7.7-15.7l-30 93.3z"/>
			<path class="s2" d="m618.5 543.8l20.2-63c-1-7.8-2.8-15.4-5.3-22.7l-25.7 79.8z"/>
			<path class="s2" d="m628 549c8.2-15.7 11.6-34.2 11.7-53.2q0-3-0.1-6l-18 55.7z"/>
			<path class="s2" d="m565.7 515l10.8 5.9 33.3-103.4q-2.1-2.4-4.3-4.7l-10.1 10.2z"/>
			<path fill-rule="evenodd" class="s2" d="m541 478.1l-15.1 15.2 8.7 4.7z"/>
			<path class="s2" d="m590.5 528.5l30.8-95.6c-2.7-4.3-5.6-8.4-8.8-12.2l-32.8 101.9z"/>
		</g>
	</g>
</svg>